<svg width="130" height="58" viewBox="0 0 130 58" fill="none" xmlns="http://www.w3.org/2000/svg">
<path d="M54.2645 44.0065C53.3781 44.8981 52.196 45.3961 50.966 45.3961C49.7361 45.3961 48.5539 44.8981 47.6676 44.0065C39.5619 35.7955 28.7009 26.6242 33.9962 13.3077C36.8643 6.1062 43.7394 1.5 50.966 1.5C58.1927 1.5 65.0703 6.10894 67.9358 13.3077C73.2259 26.605 62.3912 35.8229 54.2645 44.0065Z" stroke="#EFEFFF" stroke-width="3"/>
<path d="M38.4412 45.3961C33.8597 46.509 30.9264 48.2162 30.9264 50.134C30.9264 53.4836 39.8991 56.201 50.9659 56.201C62.0327 56.201 71.0054 53.4836 71.0054 50.134C71.0054 48.2162 68.0721 46.509 63.4906 45.3961" stroke="#EFEFFF" stroke-width="3" stroke-linecap="round"/>
<path d="M49.306 31.4642C47.4983 31.4642 45.9383 31.0184 44.626 30.127C43.3136 29.2356 42.2983 28.047 41.5803 26.5613C40.8869 25.0508 40.5403 23.3918 40.5403 21.5842C40.5403 19.7022 40.9364 18.0184 41.7288 16.5327C42.546 15.0222 43.6974 13.8337 45.1831 12.967C46.6936 12.0756 48.4888 11.6299 50.5688 11.6299C52.6241 11.6299 54.3698 12.0756 55.806 12.967C57.2669 13.8337 58.3812 15.0222 59.1488 16.5327C59.9412 18.0184 60.3374 19.6775 60.3374 21.5099C60.3374 21.5099 60.3374 29.9907 60.3374 30.5295C60.3374 31.0683 56.066 31.4209 56.066 30.5295C56.066 29.6381 56.066 27.4899 56.066 27.4899H55.9917C55.6203 28.1832 55.1374 28.8394 54.5431 29.4584C53.9488 30.0527 53.2183 30.5356 52.3517 30.907C51.485 31.2784 50.4698 31.4642 49.306 31.4642ZM50.4574 27.8242C51.5717 27.8242 52.5374 27.5518 53.3545 27.007C54.1964 26.4375 54.8403 25.6822 55.286 24.7413C55.7564 23.7756 55.9917 22.6984 55.9917 21.5099C55.9917 20.3213 55.7688 19.2689 55.3231 18.3527C54.8774 17.4118 54.246 16.6689 53.4288 16.1242C52.6117 15.5546 51.6336 15.2699 50.4945 15.2699C49.306 15.2699 48.2907 15.5546 47.4488 16.1242C46.6069 16.6689 45.9631 17.4118 45.5174 18.3527C45.0717 19.2937 44.8488 20.3584 44.8488 21.547C44.8488 22.7108 45.0717 23.7756 45.5174 24.7413C45.9631 25.6822 46.5945 26.4375 47.4117 27.007C48.2536 27.5518 49.2688 27.8242 50.4574 27.8242Z" fill="#EFEFFF"/>
<path d="M14.0871 42.0673C11.3229 42.0673 8.87756 41.4765 6.7512 40.2948C4.62485 39.1131 2.95921 37.43 1.75427 35.2456C0.584776 33.0254 2.83745e-05 30.4113 2.83745e-05 27.4033C2.83745e-05 27.4033 -3.54681e-05 3.28635 2.83745e-05 2.21135C9.22171e-05 1.13636 6.16646 1.13656 6.1133 2.21135C6.06014 3.28615 6.1133 18.1645 6.1133 18.1645H6.16646C6.73348 17.1976 7.47771 16.3561 8.39913 15.6399C9.32055 14.9237 10.3483 14.3687 11.4823 13.9748C12.6164 13.5809 13.8213 13.3839 15.0971 13.3839C17.6842 13.3839 19.9523 13.9748 21.9015 15.1565C23.8861 16.3024 25.4277 17.9138 26.5263 19.9908C27.6604 22.0677 28.2274 24.5028 28.2274 27.2959C28.2274 29.4803 27.8907 31.4856 27.2174 33.3119C26.5795 35.1024 25.6403 36.6601 24.4 37.9851C23.195 39.31 21.7243 40.3306 19.9878 41.0468C18.2512 41.7272 16.2844 42.0673 14.0871 42.0673ZM14.0871 36.8033C15.6465 36.8033 17.0286 36.4273 18.2335 35.6754C19.4385 34.8875 20.3776 33.8133 21.0509 32.4525C21.7243 31.0917 22.061 29.5161 22.061 27.7256C22.061 25.971 21.7243 24.4133 21.0509 23.0525C20.3776 21.6917 19.4385 20.6175 18.2335 19.8296C17.064 19.0418 15.6996 18.6479 14.1403 18.6479C12.581 18.6479 11.1988 19.0418 9.9939 19.8296C8.78896 20.5816 7.84982 21.638 7.17647 22.9988C6.50313 24.3595 6.16646 25.9352 6.16646 27.7256C6.16646 29.5161 6.50313 31.0917 7.17647 32.4525C7.84982 33.8133 8.78896 34.8875 9.9939 35.6754C11.1988 36.4273 12.5632 36.8033 14.0871 36.8033Z" fill="#EFEFFF"/>
<path d="M80.6254 41.4228C79.4559 41.4228 78.4105 41.1363 77.4891 40.5634C76.5676 39.9904 75.8234 39.2205 75.2564 38.2536C74.7248 37.2868 74.459 36.2304 74.459 35.0845C74.459 33.9386 74.7425 32.9001 75.3095 31.9691C75.8766 31.038 76.6562 30.2323 77.6485 29.5519L89.4498 21.7634C89.8042 21.5843 90.0168 21.3874 90.0877 21.1725C90.194 20.9576 90.2472 20.7428 90.2472 20.5279C90.2472 20.2056 90.1231 19.9192 89.8751 19.6685C89.6624 19.4178 89.3612 19.2925 88.9714 19.2925H75.788C75.788 19.2925 70.9505 14.0285 75.788 14.0285C80.6254 14.0285 90.7788 14.0285 90.7788 14.0285C91.9483 14.0285 92.976 14.315 93.862 14.8879C94.7834 15.4609 95.5099 16.2308 96.0415 17.1976C96.6085 18.1645 96.892 19.2209 96.892 20.3668C96.892 21.5127 96.6085 22.5512 96.0415 23.4822C95.4745 24.4133 94.6948 25.219 93.7025 25.8994L81.9544 33.6879C81.6354 33.867 81.4051 34.0639 81.2633 34.2788C81.157 34.4936 81.1039 34.7085 81.1039 34.9233C81.1039 35.2456 81.2279 35.5321 81.476 35.7828C81.724 36.0334 82.043 36.1588 82.4328 36.1588C82.4328 36.1588 94.4006 35.9976 96.3605 36.1588C98.3203 36.3199 96.3605 41.4228 96.3605 41.4228H80.6254Z" fill="#EFEFFF"/>
<path d="M114.212 42.0673C111.625 42.0673 109.392 41.4228 107.514 40.1336C105.636 38.8445 104.183 37.1256 103.155 34.9771C102.163 32.7927 101.666 30.3934 101.666 27.7793C101.666 25.0578 102.233 22.6228 103.367 20.4742C104.537 18.2898 106.185 16.571 108.311 15.3176C110.473 14.0285 113.042 13.3839 116.019 13.3839C118.961 13.3839 121.459 14.0285 123.515 15.3176C125.606 16.571 127.2 18.2898 128.299 20.4742C129.433 22.6228 130 25.022 130 27.6719C130 27.6719 130 38.4558 130 40.1336C130 41.8115 123.515 41.4228 123.515 40.1336C123.515 38.8445 123.887 36.3199 123.887 36.3199H123.78C123.249 37.3226 122.558 38.2715 121.707 39.1668C120.857 40.0262 119.811 40.7245 118.571 41.2616C117.33 41.7988 115.877 42.0673 114.212 42.0673ZM115.86 36.8033C117.455 36.8033 118.837 36.4094 120.006 35.6216C121.211 34.798 122.132 33.7058 122.77 32.3451C123.444 30.9485 123.78 29.3908 123.78 27.6719C123.78 25.9531 123.461 24.4312 122.824 23.1062C122.186 21.7455 121.282 20.6712 120.112 19.8834C118.943 19.0597 117.543 18.6479 115.913 18.6479C114.212 18.6479 112.759 19.0597 111.554 19.8834C110.349 20.6712 109.428 21.7455 108.79 23.1062C108.152 24.467 107.833 26.0068 107.833 27.7256C107.833 29.4087 108.152 30.9485 108.79 32.3451C109.428 33.7058 110.331 34.798 111.501 35.6216C112.706 36.4094 114.159 36.8033 115.86 36.8033Z" fill="#EFEFFF"/>
</svg>
