<svg viewBox="0 0 28 28" fill="none" xmlns="http://www.w3.org/2000/svg">
<path opacity="0.78" fill-rule="evenodd" clip-rule="evenodd" d="M12.6305 8.64023C12.6513 8.38042 12.8683 8.18021 13.1289 8.18021H13.5502C13.8062 8.18021 14.0209 8.37366 14.0475 8.62835L14.6674 14.5734L19.0744 16.9883C19.2345 17.0761 19.3341 17.2442 19.3341 17.4268V17.7617C19.3341 18.0892 19.0244 18.3283 18.7076 18.2454L12.4061 16.5974C12.1716 16.536 12.0149 16.3153 12.0342 16.0736L12.6305 8.64023Z" fill="currentColor"/>
<path opacity="0.901274" fill-rule="evenodd" clip-rule="evenodd" d="M5.84961 0.372932C5.94662 -0.0171038 6.46532 -0.131971 6.73535 0.176643L8.52148 2.21766C10.2044 1.53064 12.0555 1.1493 14 1.1493L14.3613 1.15321C21.9262 1.33699 27.9998 7.27534 28 14.5741C28 21.9889 21.732 27.9999 14 27.9999C6.26801 27.9999 0 21.9889 0 14.5741C3.69066e-05 13.315 0.180537 12.0959 0.518555 10.9403L3.08594 11.6317C2.80861 12.58 2.66703 13.5667 2.66699 14.5741C2.66699 20.5766 7.74077 25.4432 14 25.4432C20.2592 25.4432 25.333 20.5766 25.333 14.5741C25.3328 8.75935 20.5712 4.01158 14.583 3.72059L14 3.70594C12.7322 3.70594 11.4975 3.90555 10.333 4.28699L12.1211 6.33094C12.3916 6.64007 12.1818 7.11095 11.7637 7.13367L4.75195 7.51453C4.40989 7.53289 4.14425 7.22869 4.22363 6.90907L5.84961 0.372932Z" fill="currentColor"/>
</svg>
