<svg viewBox="0 0 19 19" fill="none" xmlns="http://www.w3.org/2000/svg">
<path d="M13.3768 2.64523C12.8458 2.64523 12.5794 2.64523 12.3373 2.55523L12.2374 2.51383C12.0025 2.40583 11.8144 2.21863 11.4382 1.84244C10.5724 0.976641 10.1395 0.543743 9.6076 0.503243C9.53566 0.498919 9.46353 0.498919 9.3916 0.503243C8.8597 0.543743 8.4268 0.976641 7.56101 1.84244C7.18481 2.21863 6.99671 2.40673 6.76181 2.51383L6.66281 2.55523C6.41981 2.64523 6.15431 2.64523 5.62242 2.64523H5.52342C4.16712 2.64523 3.48853 2.64523 3.06643 3.06643C2.64433 3.48763 2.64523 4.16712 2.64523 5.52342V5.62242C2.64523 6.15341 2.64523 6.41981 2.55523 6.66191C2.54203 6.69611 2.52823 6.72941 2.51383 6.76181C2.40583 6.99671 2.21863 7.18481 1.84244 7.56101C0.976641 8.4268 0.543743 8.8597 0.503243 9.3916C0.498919 9.46353 0.498919 9.53566 0.503243 9.6076C0.543743 10.1395 0.976641 10.5724 1.84244 11.4382C2.21863 11.8144 2.40673 12.0025 2.51383 12.2374C2.52883 12.2698 2.54263 12.3028 2.55523 12.3364C2.64523 12.5794 2.64523 12.8449 2.64523 13.3768V13.4758C2.64523 14.8321 2.64523 15.5107 3.06643 15.9328C3.48763 16.3549 4.16712 16.354 5.52342 16.354H5.62242C6.15341 16.354 6.41981 16.354 6.66191 16.444C6.69611 16.4566 6.72941 16.4704 6.76181 16.4854C6.99671 16.5934 7.18481 16.7806 7.56101 17.1568C8.4268 18.0226 8.8597 18.4555 9.3916 18.496C9.4636 18.5014 9.5356 18.5014 9.6076 18.496C10.1395 18.4555 10.5724 18.0226 11.4382 17.1568C11.8144 16.7806 12.0025 16.5934 12.2374 16.4854C12.2698 16.4704 12.3028 16.4566 12.3364 16.444C12.5794 16.354 12.8449 16.354 13.3768 16.354H13.4758C14.8321 16.354 15.5107 16.354 15.9328 15.9328C16.3549 15.5116 16.354 14.8321 16.354 13.4758V13.3768C16.354 12.8458 16.354 12.5794 16.444 12.3373C16.4566 12.3031 16.4704 12.2698 16.4854 12.2374C16.5934 12.0025 16.7806 11.8144 17.1568 11.4382C18.0226 10.5724 18.4555 10.1395 18.496 9.6076C18.5014 9.5356 18.5014 9.4636 18.496 9.3916C18.4555 8.8597 18.0226 8.4268 17.1568 7.56101C16.7806 7.18481 16.5934 6.99671 16.4854 6.76181L16.444 6.66281C16.354 6.41981 16.354 6.15431 16.354 5.62242V5.52342C16.354 4.16712 16.354 3.48853 15.9328 3.06643C15.5116 2.64433 14.8321 2.64523 13.4758 2.64523H13.3768Z" stroke="currentColor"/>
<path d="M12.6495 9.49953C12.6495 9.91319 12.568 10.3228 12.4097 10.705C12.2514 11.0872 12.0194 11.4344 11.7269 11.7269C11.4344 12.0194 11.0871 12.2514 10.705 12.4097C10.3228 12.568 9.91317 12.6495 9.49951 12.6495C9.08585 12.6495 8.67624 12.568 8.29407 12.4097C7.91189 12.2514 7.56464 12.0194 7.27214 11.7269C6.97964 11.4344 6.74761 11.0872 6.58931 10.705C6.43101 10.3228 6.34953 9.91319 6.34953 9.49953C6.34953 8.6641 6.6814 7.86289 7.27214 7.27216C7.86287 6.68142 8.66409 6.34955 9.49951 6.34955C10.3349 6.34955 11.1362 6.68142 11.7269 7.27216C12.3176 7.86289 12.6495 8.6641 12.6495 9.49953Z" stroke="currentColor"/>
</svg>
