<svg viewBox="0 0 22 22" fill="none" xmlns="http://www.w3.org/2000/svg">
<path fill-rule="evenodd" clip-rule="evenodd" d="M11 1.14584C9.8452 1.14584 8.7377 1.60458 7.92114 2.42115C7.10457 3.23771 6.64583 4.34521 6.64583 5.50001C6.64583 6.65481 7.10457 7.76231 7.92114 8.57887C8.7377 9.39544 9.8452 9.85418 11 9.85418C12.1548 9.85418 13.2623 9.39544 14.0789 8.57887C14.8954 7.76231 15.3542 6.65481 15.3542 5.50001C15.3542 4.34521 14.8954 3.23771 14.0789 2.42115C13.2623 1.60458 12.1548 1.14584 11 1.14584ZM8.02083 5.50001C8.02083 4.70989 8.33471 3.95212 8.89341 3.39342C9.45211 2.83472 10.2099 2.52084 11 2.52084C11.7901 2.52084 12.5479 2.83472 13.1066 3.39342C13.6653 3.95212 13.9792 4.70989 13.9792 5.50001C13.9792 6.29013 13.6653 7.0479 13.1066 7.6066C12.5479 8.1653 11.7901 8.47918 11 8.47918C10.2099 8.47918 9.45211 8.1653 8.89341 7.6066C8.33471 7.0479 8.02083 6.29013 8.02083 5.50001ZM11 13.2002C8.87975 13.2002 6.92542 11.7113 5.478 12.5253C4.05167 13.3283 2.97917 14.5438 2.97917 16.0417V16.1352C2.97825 17.2003 2.97733 18.5368 4.14975 19.492C4.72633 19.9613 5.53392 20.2959 6.62475 20.5159C7.71742 20.7378 9.14283 20.8542 11 20.8542C12.8572 20.8542 14.2817 20.7378 15.3762 20.5159C16.467 20.2959 17.2737 19.9613 17.8512 19.492C19.0236 18.5368 19.0217 17.2003 19.0208 16.1352V16.0417C19.0208 14.5438 17.9483 13.3283 16.5229 12.5253C15.0746 11.7113 13.1212 13.2002 11 13.2002ZM4.35417 16.0417C4.35417 15.2616 4.92433 14.4146 6.15175 13.7243C7.35808 13.046 9.0695 14.3002 11 14.3002C12.9287 14.3002 14.6419 13.046 15.8482 13.7243C17.0766 14.4146 17.6458 15.2616 17.6458 16.0417C17.6458 17.2407 17.6092 17.9153 16.9822 18.425C16.643 18.7018 16.0747 18.9723 15.103 19.1684C14.1341 19.3646 12.8095 19.4792 11 19.4792C9.1905 19.4792 7.865 19.3646 6.897 19.1684C5.92533 18.9723 5.357 18.7018 5.01783 18.4259C4.39083 17.9153 4.35417 17.2407 4.35417 16.0417Z" fill="currentColor"/>
<line x1="12.4" y1="16.6" x2="14.9" y2="16.6" stroke="currentColor" stroke-width="0.8" stroke-linecap="round"/>
<line x1="8.1" y1="5.1" x2="13.9" y2="5.1" stroke="currentColor" stroke-width="0.8" stroke-linecap="round"/>
</svg>
