<svg viewBox="0 0 22 22" fill="none" xmlns="http://www.w3.org/2000/svg">
<path d="M10.8442 12.8333V12.2641C10.8437 11.8889 10.9421 11.5203 11.1294 11.1952C11.3167 10.8702 11.5864 10.6002 11.9112 10.4124C12.9433 9.80743 13.299 8.52684 12.694 7.49468C12.089 6.46251 10.8084 6.10684 9.77625 6.71184C9.13458 7.10418 8.70833 7.77976 8.70833 8.56259M11 15.5833H10.9927M20.1667 11C20.1667 5.93726 16.0627 1.83334 11 1.83334C5.93725 1.83334 1.83333 5.93726 1.83333 11C1.83333 16.0628 5.93725 20.1667 11 20.1667C16.0627 20.1667 20.1667 16.0628 20.1667 11Z" stroke="currentColor" stroke-miterlimit="10" stroke-linecap="round" stroke-linejoin="round"/>
</svg>
