<svg viewBox="0 0 20 22" fill="none" xmlns="http://www.w3.org/2000/svg">
<path d="M12.9167 16.5C12.9167 16.9213 12.8412 17.3385 12.6946 17.7278C12.5481 18.117 12.3332 18.4707 12.0624 18.7687C11.7916 19.0666 11.47 19.3029 11.1162 19.4641C10.7623 19.6254 10.383 19.7084 10 19.7084C9.61698 19.7084 9.23771 19.6254 8.88384 19.4641C8.52997 19.3029 8.20844 19.0666 7.93761 18.7687C7.66677 18.4707 7.45193 18.117 7.30535 17.7278C7.15878 17.3385 7.08333 16.9213 7.08333 16.5M16.0258 16.5H3.975C3.68348 16.4999 3.39854 16.4047 3.1562 16.2264C2.91386 16.0482 2.72501 15.7949 2.61352 15.4986C2.50203 15.2023 2.47291 14.8763 2.52983 14.5618C2.58676 14.2473 2.72718 13.9584 2.93333 13.7317L3.435 13.1789C3.90357 12.6632 4.16675 11.9638 4.16667 11.2347V8.70835C4.16667 7.00655 4.78125 5.37444 5.87521 4.17108C6.96917 2.96773 8.4529 2.29169 10 2.29169C11.5471 2.29169 13.0308 2.96773 14.1248 4.17108C15.2188 5.37444 15.8333 7.00655 15.8333 8.70835V11.2347C15.8335 11.964 16.097 12.6633 16.5658 13.1789L17.0683 13.7317C17.2741 13.9586 17.4141 14.2474 17.4708 14.5618C17.5275 14.8761 17.4983 15.2019 17.3869 15.498C17.2755 15.7942 17.0868 16.0473 16.8448 16.2257C16.6027 16.404 16.3172 16.4994 16.0258 16.5Z" stroke="currentColor" stroke-linecap="round" stroke-linejoin="round"/>
<!-- <ellipse cx="15.6522" cy="5.47826" rx="3.47826" ry="3.47826" fill="#FF2D55"/> talvez eu use quando tiver notificacoes -->
</svg>
