<svg width="24" height="24" viewBox="0 0 24 24" fill="none" xmlns="http://www.w3.org/2000/svg">
<path d="M2 12L1.61 11.688L1.36 12L1.61 12.312L2 12ZM11 12.5C11.1326 12.5 11.2598 12.4473 11.3536 12.3535C11.4473 12.2598 11.5 12.1326 11.5 12C11.5 11.8674 11.4473 11.7402 11.3536 11.6464C11.2598 11.5527 11.1326 11.5 11 11.5V12.5ZM5.61 6.68799L1.61 11.688L2.39 12.312L6.39 7.31199L5.61 6.68799ZM1.61 12.312L5.61 17.312L6.39 16.688L2.39 11.688L1.61 12.312ZM2 12.5H11V11.5H2V12.5Z" fill="#FF2D55"/>
<path d="M10 8.13201V7.38901C10 5.77001 10 4.96101 10.474 4.40201C10.948 3.84301 11.746 3.70901 13.342 3.44201L15.014 3.16401C18.257 2.62401 19.878 2.35401 20.939 3.25201C22 4.15101 22 5.79501 22 9.08201V14.917C22 18.205 22 19.849 20.94 20.747C19.878 21.647 18.257 21.377 15.014 20.836L13.342 20.557C11.746 20.291 10.948 20.158 10.474 19.599C10 19.039 10 18.229 10 16.61V16.065" stroke="#FF2D55"/>
</svg>
